<svg xmlns="http://www.w3.org/2000/svg" width="512" height="512" viewBox="0 0 512 512" version="1.1">
	<path d="M 237 16.619 C 217.103 18.429, 193.209 23.515, 175.593 29.690 C 161.528 34.621, 137.487 46.516, 125 54.723 C 64.551 94.455, 25.393 157.327, 17.039 228.066 C 16.234 234.890, 16.215 238.436, 16.976 240.437 C 19.382 246.764, 19.920 256.602, 18.812 274 C 17.763 290.472, 17.824 292.128, 19.857 302.188 C 29.505 349.930, 51.696 391.582, 85.476 425.351 C 104.809 444.678, 124.493 458.723, 149.500 471.032 C 171.401 481.812, 181.580 485.260, 189.024 484.418 C 200.585 483.110, 221.070 487.420, 228.603 492.745 L 232.500 495.500 256.500 495.449 C 283.017 495.392, 295.571 493.855, 317.827 487.942 C 401.182 465.794, 467.119 399.218, 488.470 315.643 C 494.158 293.380, 495.441 282.420, 495.451 256 C 495.462 229.534, 494.188 218.621, 488.490 196.392 C 473.988 139.806, 438.520 89.602, 390.035 57.029 C 360.646 37.284, 325.431 23.714, 289.936 18.457 C 279.819 16.959, 246.128 15.789, 237 16.619 M 238.978 23.001 C 205.418 26.025, 175.378 35.685, 147 52.578 C 107.730 75.956, 72.097 115.177, 45.714 164.066 C 42.212 170.556, 40.925 174.229, 40.132 180 C 38.546 191.532, 37.586 211.002, 38.603 210.984 C 39.096 210.975, 42.425 205.265, 46 198.296 C 65.931 159.443, 95.375 122.035, 130 91.576 C 165.911 59.986, 195.795 43.314, 229.500 36.065 C 300.961 20.696, 379.493 51.065, 413.935 107.388 C 419.295 116.152, 422.409 123.215, 425.647 133.953 C 429.156 145.586, 430.064 167.616, 427.550 180.106 C 422.513 205.128, 411.142 225.958, 392.066 245.105 C 379.411 257.807, 367.564 267.298, 340.100 286.739 C 288.058 323.576, 278.062 330.817, 266.670 339.929 C 231.938 367.711, 208.877 393.539, 197.644 417.240 C 191.821 429.524, 191.450 428.442, 202.699 431.981 C 214.357 435.649, 237.375 440.454, 239.460 439.654 C 240.270 439.343, 242.709 435.557, 244.879 431.241 C 254.218 412.667, 270.478 392.630, 290.669 374.817 C 302.803 364.111, 328.406 344.743, 358.089 323.814 C 413.304 284.884, 436.119 261.413, 448.435 230.870 C 466.887 185.110, 457.660 138.200, 421.807 95.500 C 394.600 63.096, 349.471 37.038, 304 27.478 C 283.852 23.242, 256.901 21.387, 238.978 23.001" stroke="none" fill="black" fill-rule="evenodd"/>
</svg>